<svg width="243" height="18" viewBox="0 0 243 18" fill="none" xmlns="http://www.w3.org/2000/svg">
<path d="M0.259233 14V12.5682L4.68892 7.97869C5.16193 7.48011 5.55185 7.04332 5.85866 6.66832C6.16974 6.28906 6.40199 5.92898 6.5554 5.58807C6.70881 5.24716 6.78551 4.88494 6.78551 4.50142C6.78551 4.06676 6.68324 3.69176 6.47869 3.37642C6.27415 3.05682 5.99503 2.81179 5.64134 2.64134C5.28764 2.46662 4.8892 2.37926 4.44602 2.37926C3.97727 2.37926 3.56818 2.47514 3.21875 2.6669C2.86932 2.85866 2.60085 3.12926 2.41335 3.47869C2.22585 3.82812 2.1321 4.23722 2.1321 4.70597H0.246449C0.246449 3.90909 0.429688 3.21236 0.796165 2.61577C1.16264 2.01918 1.66548 1.55682 2.30469 1.22869C2.94389 0.896306 3.67045 0.730113 4.48438 0.730113C5.30682 0.730113 6.03125 0.894176 6.65767 1.2223C7.28835 1.54616 7.78054 1.98935 8.13423 2.55185C8.48793 3.11009 8.66477 3.74077 8.66477 4.44389C8.66477 4.92969 8.57315 5.40483 8.38991 5.86932C8.21094 6.33381 7.89773 6.85156 7.45028 7.42259C7.00284 7.98935 6.38068 8.67756 5.58381 9.48722L2.98224 12.2102V12.3061H8.87571V14H0.259233ZM15.8558 14.2173C14.8459 14.2131 13.983 13.9467 13.267 13.4183C12.5511 12.8899 12.0036 12.1207 11.6243 11.1108C11.245 10.1009 11.0554 8.88423 11.0554 7.46094C11.0554 6.0419 11.245 4.82955 11.6243 3.82386C12.0078 2.81818 12.5575 2.05114 13.2734 1.52273C13.9936 0.994318 14.8544 0.730113 15.8558 0.730113C16.8572 0.730113 17.7159 0.996448 18.4318 1.52912C19.1477 2.05753 19.6953 2.82457 20.0746 3.83026C20.4581 4.83168 20.6499 6.0419 20.6499 7.46094C20.6499 8.88849 20.4602 10.1072 20.081 11.1172C19.7017 12.1229 19.1541 12.892 18.4382 13.4247C17.7223 13.9531 16.8615 14.2173 15.8558 14.2173ZM15.8558 12.5107C16.7422 12.5107 17.4347 12.0781 17.9332 11.2131C18.4361 10.348 18.6875 9.0973 18.6875 7.46094C18.6875 6.37429 18.5724 5.45597 18.3423 4.70597C18.1165 3.9517 17.7905 3.38068 17.3643 2.9929C16.9425 2.60085 16.4396 2.40483 15.8558 2.40483C14.9737 2.40483 14.2813 2.83949 13.7784 3.70881C13.2756 4.57812 13.022 5.82884 13.0178 7.46094C13.0178 8.55185 13.1307 9.47443 13.3565 10.2287C13.5866 10.9787 13.9126 11.5476 14.3345 11.9354C14.7564 12.3189 15.2635 12.5107 15.8558 12.5107ZM22.9174 14V12.5682L27.3471 7.97869C27.8201 7.48011 28.21 7.04332 28.5169 6.66832C28.8279 6.28906 29.0602 5.92898 29.2136 5.58807C29.367 5.24716 29.4437 4.88494 29.4437 4.50142C29.4437 4.06676 29.3414 3.69176 29.1369 3.37642C28.9324 3.05682 28.6532 2.81179 28.2995 2.64134C27.9458 2.46662 27.5474 2.37926 27.1042 2.37926C26.6355 2.37926 26.2264 2.47514 25.877 2.6669C25.5275 2.85866 25.2591 3.12926 25.0716 3.47869C24.8841 3.82812 24.7903 4.23722 24.7903 4.70597H22.9047C22.9047 3.90909 23.0879 3.21236 23.4544 2.61577C23.8208 2.01918 24.3237 1.55682 24.9629 1.22869C25.6021 0.896306 26.3287 0.730113 27.1426 0.730113C27.965 0.730113 28.6895 0.894176 29.3159 1.2223C29.9466 1.54616 30.4387 1.98935 30.7924 2.55185C31.1461 3.11009 31.323 3.74077 31.323 4.44389C31.323 4.92969 31.2314 5.40483 31.0481 5.86932C30.8691 6.33381 30.5559 6.85156 30.1085 7.42259C29.661 7.98935 29.0389 8.67756 28.242 9.48722L25.6404 12.2102V12.3061H31.5339V14H22.9174ZM38.514 14.179C37.6362 14.179 36.8521 14.0277 36.1618 13.7251C35.4757 13.4226 34.9324 13.0028 34.5318 12.4659C34.1355 11.9247 33.9224 11.2983 33.8926 10.5866H35.8997C35.9252 10.9744 36.0552 11.3111 36.2896 11.5966C36.5282 11.8778 36.8393 12.0952 37.2228 12.2486C37.6064 12.402 38.0325 12.4787 38.5012 12.4787C39.0169 12.4787 39.4728 12.3892 39.8691 12.2102C40.2697 12.0312 40.5829 11.782 40.8088 11.4624C41.0346 11.1385 41.1476 10.7656 41.1476 10.3438C41.1476 9.90483 41.0346 9.51918 40.8088 9.18679C40.5872 8.85014 40.2612 8.58594 39.8308 8.39418C39.4047 8.20241 38.889 8.10653 38.2839 8.10653H37.1781V6.49574H38.2839C38.7697 6.49574 39.1958 6.40838 39.5623 6.23366C39.9331 6.05895 40.2228 5.81605 40.4316 5.50497C40.6404 5.18963 40.7449 4.82102 40.7449 4.39915C40.7449 3.99432 40.6532 3.64276 40.47 3.34446C40.291 3.0419 40.0353 2.8054 39.7029 2.63494C39.3748 2.46449 38.987 2.37926 38.5396 2.37926C38.1135 2.37926 37.715 2.4581 37.3443 2.61577C36.9778 2.76918 36.6795 2.99077 36.4494 3.28054C36.2193 3.56605 36.0957 3.90909 36.0787 4.30966H34.1674C34.1887 3.60227 34.3975 2.98011 34.7939 2.44318C35.1944 1.90625 35.7228 1.48651 36.3791 1.18395C37.0353 0.881392 37.764 0.730113 38.5652 0.730113C39.4047 0.730113 40.1291 0.894176 40.7385 1.2223C41.3521 1.54616 41.8251 1.97869 42.1575 2.51989C42.4941 3.06108 42.6603 3.65341 42.6561 4.29688C42.6603 5.02983 42.4558 5.65199 42.0424 6.16335C41.6333 6.67472 41.0879 7.01776 40.4061 7.19247V7.29474C41.2754 7.42685 41.9487 7.77202 42.426 8.33026C42.9075 8.88849 43.1461 9.58097 43.1419 10.4077C43.1461 11.1278 42.9458 11.7734 42.541 12.3445C42.1404 12.9155 41.5929 13.3651 40.8983 13.6932C40.2037 14.017 39.4089 14.179 38.514 14.179ZM46.4561 14.1214C46.1067 14.1214 45.8063 13.9979 45.5549 13.7507C45.3034 13.4993 45.1777 13.1967 45.1777 12.843C45.1777 12.4936 45.3034 12.1953 45.5549 11.9482C45.8063 11.6967 46.1067 11.571 46.4561 11.571C46.8056 11.571 47.106 11.6967 47.3574 11.9482C47.6088 12.1953 47.7346 12.4936 47.7346 12.843C47.7346 13.0774 47.6749 13.2926 47.5556 13.4886C47.4405 13.6804 47.2871 13.8338 47.0953 13.9489C46.9036 14.0639 46.6905 14.1214 46.4561 14.1214ZM59.2386 14H55.0007V0.909091H59.3729C60.6555 0.909091 61.7571 1.17116 62.6776 1.69531C63.598 2.2152 64.3033 2.96307 64.7933 3.93892C65.2876 4.91051 65.5348 6.07599 65.5348 7.43537C65.5348 8.79901 65.2855 9.97088 64.7869 10.951C64.2926 11.9311 63.5767 12.6854 62.6392 13.2138C61.7017 13.7379 60.5682 14 59.2386 14ZM56.9759 12.2741H59.13C60.1271 12.2741 60.956 12.0866 61.6165 11.7116C62.277 11.3324 62.7713 10.7848 63.0994 10.0689C63.4276 9.34872 63.5916 8.47088 63.5916 7.43537C63.5916 6.40838 63.4276 5.53693 63.0994 4.82102C62.7756 4.10511 62.2919 3.56179 61.6484 3.19105C61.005 2.82031 60.206 2.63494 59.2514 2.63494H56.9759V12.2741ZM72.0691 14.1982C71.1017 14.1982 70.2686 13.9915 69.5698 13.5781C68.8752 13.1605 68.3382 12.5746 67.959 11.8203C67.584 11.0618 67.3965 10.1733 67.3965 9.15483C67.3965 8.14915 67.584 7.26278 67.959 6.49574C68.3382 5.72869 68.8667 5.12997 69.5442 4.69957C70.226 4.26918 71.0229 4.05398 71.9348 4.05398C72.4888 4.05398 73.0257 4.1456 73.5456 4.32884C74.0655 4.51207 74.5321 4.79972 74.9455 5.19176C75.3588 5.58381 75.6848 6.09304 75.9235 6.71946C76.1621 7.34162 76.2814 8.09801 76.2814 8.98864V9.66619H68.4767V8.23438H74.4086C74.4086 7.73153 74.3063 7.28622 74.1017 6.89844C73.8972 6.50639 73.6096 6.19744 73.2388 5.97159C72.8723 5.74574 72.4419 5.63281 71.9476 5.63281C71.4107 5.63281 70.9419 5.76491 70.5414 6.02912C70.1451 6.28906 69.8382 6.62997 69.6209 7.05185C69.4078 7.46946 69.3013 7.9233 69.3013 8.41335V9.53196C69.3013 10.1882 69.4164 10.7464 69.6465 11.2067C69.8809 11.6669 70.2069 12.0185 70.6245 12.2614C71.0421 12.5 71.53 12.6193 72.0882 12.6193C72.4505 12.6193 72.7807 12.5682 73.079 12.4659C73.3773 12.3594 73.6351 12.2017 73.8525 11.9929C74.0698 11.7841 74.236 11.5263 74.351 11.2195L76.16 11.5455C76.0151 12.0781 75.7551 12.5447 75.3801 12.9453C75.0094 13.3416 74.5428 13.6506 73.9803 13.8722C73.4221 14.0895 72.785 14.1982 72.0691 14.1982ZM85.7592 6.57884L84.027 6.88565C83.9545 6.66406 83.8395 6.45312 83.6818 6.25284C83.5284 6.05256 83.3196 5.88849 83.0554 5.76065C82.7912 5.63281 82.4609 5.56889 82.0646 5.56889C81.5234 5.56889 81.0717 5.69034 80.7095 5.93324C80.3473 6.17187 80.1662 6.48082 80.1662 6.86009C80.1662 7.18821 80.2876 7.45241 80.5305 7.6527C80.7734 7.85298 81.1655 8.01705 81.7067 8.14489L83.2663 8.50284C84.1697 8.71165 84.843 9.03338 85.2862 9.46804C85.7294 9.9027 85.951 10.4673 85.951 11.1619C85.951 11.75 85.7805 12.2741 85.4396 12.7344C85.103 13.1903 84.6321 13.5483 84.027 13.8082C83.4261 14.0682 82.7294 14.1982 81.9368 14.1982C80.8374 14.1982 79.9403 13.9638 79.2457 13.495C78.5511 13.022 78.125 12.3509 77.9673 11.4815L79.8146 11.2003C79.9297 11.6818 80.1662 12.0462 80.5241 12.2933C80.8821 12.5362 81.3487 12.6577 81.924 12.6577C82.5504 12.6577 83.0511 12.5277 83.4261 12.2678C83.8011 12.0036 83.9886 11.6818 83.9886 11.3026C83.9886 10.9957 83.8736 10.7379 83.6435 10.5291C83.4176 10.3203 83.0703 10.1626 82.6016 10.0561L80.9396 9.69176C80.0234 9.48295 79.3459 9.15057 78.907 8.6946C78.4723 8.23864 78.255 7.66122 78.255 6.96236C78.255 6.38281 78.4169 5.87571 78.7408 5.44105C79.0646 5.00639 79.5121 4.66761 80.0831 4.42472C80.6541 4.17756 81.3082 4.05398 82.0455 4.05398C83.1065 4.05398 83.9418 4.28409 84.5511 4.74432C85.1605 5.20028 85.5632 5.81179 85.7592 6.57884ZM88.0524 14V4.18182H89.9636V14H88.0524ZM89.0176 2.6669C88.6852 2.6669 88.3997 2.55611 88.161 2.33452C87.9267 2.10866 87.8095 1.8402 87.8095 1.52912C87.8095 1.21378 87.9267 0.945312 88.161 0.723721C88.3997 0.497869 88.6852 0.384943 89.0176 0.384943C89.35 0.384943 89.6333 0.497869 89.8677 0.723721C90.1064 0.945312 90.2257 1.21378 90.2257 1.52912C90.2257 1.8402 90.1064 2.10866 89.8677 2.33452C89.6333 2.55611 89.35 2.6669 89.0176 2.6669ZM96.6513 17.8864C95.8714 17.8864 95.2003 17.7841 94.6378 17.5795C94.0795 17.375 93.6236 17.1044 93.2699 16.7678C92.9162 16.4311 92.652 16.0625 92.4773 15.6619L94.12 14.9844C94.2351 15.1719 94.3885 15.37 94.5803 15.5788C94.7763 15.7919 95.0405 15.973 95.3729 16.1222C95.7095 16.2713 96.142 16.3459 96.6705 16.3459C97.3949 16.3459 97.9936 16.169 98.4666 15.8153C98.9396 15.4659 99.1761 14.9077 99.1761 14.1406V12.2102H99.0547C98.9396 12.419 98.7734 12.6513 98.5561 12.907C98.343 13.1626 98.049 13.3842 97.674 13.5717C97.299 13.7592 96.8111 13.853 96.2102 13.853C95.4347 13.853 94.7358 13.6719 94.1136 13.3097C93.4957 12.9432 93.0057 12.4041 92.6435 11.6925C92.2855 10.9766 92.1065 10.0966 92.1065 9.05256C92.1065 8.00852 92.2834 7.11364 92.6371 6.3679C92.995 5.62216 93.4851 5.05114 94.1072 4.65483C94.7294 4.25426 95.4347 4.05398 96.223 4.05398C96.8324 4.05398 97.3246 4.15625 97.6996 4.3608C98.0746 4.56108 98.3665 4.79545 98.5753 5.06392C98.7884 5.33239 98.9524 5.56889 99.0675 5.77344H99.2081V4.18182H101.081V14.2173C101.081 15.0611 100.885 15.7536 100.493 16.2947C100.101 16.8359 99.5703 17.2365 98.9013 17.4964C98.2365 17.7564 97.4865 17.8864 96.6513 17.8864ZM96.6321 12.2678C97.1818 12.2678 97.6463 12.1399 98.0256 11.8842C98.4091 11.6243 98.6989 11.2536 98.8949 10.772C99.0952 10.2862 99.1953 9.70455 99.1953 9.02699C99.1953 8.36648 99.0973 7.7848 98.9013 7.28196C98.7053 6.77912 98.4176 6.38707 98.0384 6.10582C97.6591 5.82031 97.1903 5.67756 96.6321 5.67756C96.0568 5.67756 95.5774 5.8267 95.1939 6.125C94.8104 6.41903 94.5206 6.8196 94.3246 7.3267C94.1328 7.83381 94.0369 8.40057 94.0369 9.02699C94.0369 9.67045 94.1349 10.2351 94.331 10.7209C94.527 11.2067 94.8168 11.5859 95.2003 11.8587C95.5881 12.1314 96.0653 12.2678 96.6321 12.2678ZM105.555 8.17045V14H103.644V4.18182H105.479V5.77983H105.6C105.826 5.25994 106.18 4.84233 106.661 4.52699C107.147 4.21165 107.759 4.05398 108.496 4.05398C109.165 4.05398 109.751 4.1946 110.254 4.47585C110.756 4.75284 111.146 5.16619 111.423 5.71591C111.7 6.26562 111.839 6.94531 111.839 7.75497V14H109.928V7.98509C109.928 7.27344 109.742 6.71733 109.371 6.31676C109.001 5.91193 108.491 5.70952 107.844 5.70952C107.401 5.70952 107.006 5.8054 106.661 5.99716C106.32 6.18892 106.05 6.47017 105.849 6.84091C105.653 7.20739 105.555 7.65057 105.555 8.17045ZM118.634 14.1982C117.666 14.1982 116.833 13.9915 116.134 13.5781C115.44 13.1605 114.903 12.5746 114.523 11.8203C114.148 11.0618 113.961 10.1733 113.961 9.15483C113.961 8.14915 114.148 7.26278 114.523 6.49574C114.903 5.72869 115.431 5.12997 116.109 4.69957C116.79 4.26918 117.587 4.05398 118.499 4.05398C119.053 4.05398 119.59 4.1456 120.11 4.32884C120.63 4.51207 121.097 4.79972 121.51 5.19176C121.923 5.58381 122.249 6.09304 122.488 6.71946C122.727 7.34162 122.846 8.09801 122.846 8.98864V9.66619H115.041V8.23438H120.973C120.973 7.73153 120.871 7.28622 120.666 6.89844C120.462 6.50639 120.174 6.19744 119.803 5.97159C119.437 5.74574 119.006 5.63281 118.512 5.63281C117.975 5.63281 117.506 5.76491 117.106 6.02912C116.71 6.28906 116.403 6.62997 116.185 7.05185C115.972 7.46946 115.866 7.9233 115.866 8.41335V9.53196C115.866 10.1882 115.981 10.7464 116.211 11.2067C116.445 11.6669 116.771 12.0185 117.189 12.2614C117.607 12.5 118.094 12.6193 118.653 12.6193C119.015 12.6193 119.345 12.5682 119.643 12.4659C119.942 12.3594 120.2 12.2017 120.417 11.9929C120.634 11.7841 120.8 11.5263 120.915 11.2195L122.724 11.5455C122.58 12.0781 122.32 12.5447 121.945 12.9453C121.574 13.3416 121.107 13.6506 120.545 13.8722C119.987 14.0895 119.349 14.1982 118.634 14.1982ZM128.642 14.1918C127.849 14.1918 127.142 13.9893 126.52 13.5845C125.902 13.1754 125.416 12.5937 125.062 11.8395C124.713 11.081 124.538 10.1712 124.538 9.11009C124.538 8.04901 124.715 7.14133 125.069 6.38707C125.427 5.63281 125.917 5.0554 126.539 4.65483C127.161 4.25426 127.866 4.05398 128.655 4.05398C129.264 4.05398 129.754 4.15625 130.125 4.3608C130.5 4.56108 130.79 4.79545 130.994 5.06392C131.203 5.33239 131.365 5.56889 131.48 5.77344H131.595V0.909091H133.506V14H131.64V12.4723H131.48C131.365 12.6811 131.199 12.9197 130.981 13.1882C130.768 13.4567 130.474 13.6911 130.099 13.8913C129.724 14.0916 129.238 14.1918 128.642 14.1918ZM129.064 12.5618C129.613 12.5618 130.078 12.4169 130.457 12.1271C130.841 11.8331 131.131 11.4261 131.327 10.9062C131.527 10.3864 131.627 9.78125 131.627 9.09091C131.627 8.40909 131.529 7.8125 131.333 7.30114C131.137 6.78977 130.849 6.39133 130.47 6.10582C130.091 5.82031 129.622 5.67756 129.064 5.67756C128.488 5.67756 128.009 5.8267 127.626 6.125C127.242 6.4233 126.952 6.83026 126.756 7.34588C126.564 7.86151 126.469 8.44318 126.469 9.09091C126.469 9.74716 126.567 10.3374 126.763 10.8615C126.959 11.3857 127.248 11.8011 127.632 12.108C128.02 12.4105 128.497 12.5618 129.064 12.5618ZM141.151 14V0.909091H143.062V5.77344H143.177C143.288 5.56889 143.448 5.33239 143.657 5.06392C143.866 4.79545 144.155 4.56108 144.526 4.3608C144.897 4.15625 145.387 4.05398 145.996 4.05398C146.789 4.05398 147.496 4.25426 148.118 4.65483C148.741 5.0554 149.229 5.63281 149.582 6.38707C149.94 7.14133 150.119 8.04901 150.119 9.11009C150.119 10.1712 149.942 11.081 149.589 11.8395C149.235 12.5937 148.749 13.1754 148.131 13.5845C147.513 13.9893 146.808 14.1918 146.015 14.1918C145.419 14.1918 144.931 14.0916 144.552 13.8913C144.177 13.6911 143.883 13.4567 143.67 13.1882C143.456 12.9197 143.292 12.6811 143.177 12.4723H143.018V14H141.151ZM143.024 9.09091C143.024 9.78125 143.124 10.3864 143.324 10.9062C143.525 11.4261 143.814 11.8331 144.194 12.1271C144.573 12.4169 145.037 12.5618 145.587 12.5618C146.158 12.5618 146.635 12.4105 147.019 12.108C147.403 11.8011 147.692 11.3857 147.888 10.8615C148.089 10.3374 148.189 9.74716 148.189 9.09091C148.189 8.44318 148.091 7.86151 147.895 7.34588C147.703 6.83026 147.413 6.4233 147.025 6.125C146.642 5.8267 146.162 5.67756 145.587 5.67756C145.033 5.67756 144.564 5.82031 144.181 6.10582C143.802 6.39133 143.514 6.78977 143.318 7.30114C143.122 7.8125 143.024 8.40909 143.024 9.09091ZM153.139 17.6818C152.854 17.6818 152.594 17.6584 152.36 17.6115C152.125 17.5689 151.95 17.522 151.835 17.4709L152.296 15.9048C152.645 15.9986 152.956 16.0391 153.229 16.0263C153.502 16.0135 153.742 15.9112 153.951 15.7195C154.164 15.5277 154.352 15.2145 154.514 14.7798L154.75 14.1278L151.158 4.18182H153.203L155.69 11.8011H155.792L158.279 4.18182H160.33L156.284 15.3104C156.097 15.8217 155.858 16.2543 155.568 16.608C155.279 16.9659 154.933 17.2344 154.533 17.4134C154.132 17.5923 153.668 17.6818 153.139 17.6818ZM175.475 4.18182C175.556 3.28693 175.336 2.55185 174.816 1.97656C174.297 1.40128 173.527 1.11364 172.509 1.11364C171.844 1.11364 171.226 1.24361 170.655 1.50355C170.088 1.75923 169.615 2.11079 169.236 2.55824C168.857 3.00142 168.618 3.50852 168.52 4.07955C168.465 4.41193 168.469 4.71875 168.533 5C168.601 5.27699 168.729 5.53267 168.917 5.76705C169.108 5.99716 169.362 6.20597 169.677 6.39347C169.997 6.58097 170.378 6.74716 170.821 6.89205L172.228 7.35227C172.765 7.52699 173.223 7.72301 173.602 7.94034C173.985 8.15767 174.29 8.40057 174.516 8.66903C174.742 8.9375 174.893 9.23793 174.97 9.57031C175.051 9.9027 175.057 10.2713 174.989 10.6761C174.874 11.3793 174.603 11.9972 174.177 12.5298C173.751 13.0582 173.201 13.4695 172.528 13.7635C171.859 14.0575 171.094 14.2045 170.233 14.2045C169.441 14.2045 168.767 14.0661 168.213 13.7891C167.659 13.5078 167.248 13.1222 166.98 12.6321C166.716 12.1378 166.615 11.571 166.679 10.9318H167.088C167.037 11.4943 167.131 11.9908 167.37 12.4212C167.613 12.8516 167.983 13.1882 168.482 13.4311C168.98 13.674 169.59 13.7955 170.31 13.7955C171.064 13.7955 171.744 13.6634 172.349 13.3991C172.954 13.1349 173.451 12.7685 173.838 12.2997C174.23 11.831 174.478 11.2898 174.58 10.6761C174.657 10.2074 174.62 9.7919 174.471 9.42969C174.326 9.06747 174.058 8.74787 173.666 8.47088C173.274 8.19389 172.743 7.94886 172.074 7.7358L170.642 7.27557C169.667 6.96023 168.97 6.53835 168.552 6.00994C168.135 5.47727 167.988 4.83381 168.111 4.07955C168.222 3.41903 168.484 2.83523 168.897 2.32812C169.315 1.82102 169.841 1.42472 170.476 1.1392C171.111 0.849431 171.806 0.704545 172.56 0.704545C173.31 0.704545 173.945 0.853693 174.465 1.15199C174.985 1.45028 175.368 1.86151 175.615 2.38565C175.863 2.9098 175.952 3.50852 175.884 4.18182H175.475ZM181.025 14.2045C180.249 14.2045 179.589 13.9808 179.043 13.5334C178.502 13.0859 178.114 12.4744 177.88 11.6989C177.65 10.9233 177.616 10.0455 177.778 9.06534C177.939 8.1108 178.259 7.25426 178.736 6.49574C179.218 5.73295 179.797 5.1321 180.475 4.69318C181.157 4.25 181.877 4.02841 182.635 4.02841C183.42 4.02841 184.082 4.25426 184.623 4.70597C185.169 5.15767 185.557 5.77131 185.787 6.54688C186.021 7.32244 186.062 8.19602 185.908 9.16761C185.746 10.1222 185.425 10.9808 184.943 11.7436C184.461 12.5021 183.88 13.103 183.198 13.5462C182.516 13.9851 181.792 14.2045 181.025 14.2045ZM181.025 13.7955C181.732 13.7955 182.399 13.5909 183.025 13.1818C183.652 12.7685 184.184 12.206 184.623 11.4943C185.062 10.7784 185.354 9.96875 185.499 9.06534C185.644 8.1875 185.616 7.39915 185.416 6.70028C185.216 6.00142 184.877 5.44957 184.4 5.04474C183.922 4.63991 183.343 4.4375 182.661 4.4375C181.962 4.4375 181.3 4.64631 180.673 5.06392C180.047 5.47727 179.512 6.0419 179.069 6.75781C178.626 7.46946 178.331 8.27273 178.187 9.16761C178.033 10.0455 178.057 10.8338 178.257 11.5327C178.461 12.2315 178.802 12.7834 179.28 13.1882C179.761 13.593 180.343 13.7955 181.025 13.7955ZM187.971 14L189.608 4.18182H190.017L189.761 5.6392H189.812C190.081 5.16619 190.471 4.7848 190.982 4.49503C191.493 4.20099 192.075 4.05398 192.727 4.05398C193.468 4.05398 194.027 4.23722 194.402 4.60369C194.777 4.97017 195.002 5.46023 195.079 6.07386H195.13C195.386 5.46023 195.793 4.97017 196.351 4.60369C196.909 4.23722 197.559 4.05398 198.301 4.05398C199.285 4.05398 199.961 4.36719 200.327 4.99361C200.694 5.61577 200.794 6.41903 200.627 7.40341L199.528 14H199.119L200.218 7.40341C200.359 6.53409 200.287 5.8267 200.001 5.28125C199.72 4.7358 199.145 4.46307 198.275 4.46307C197.406 4.46307 196.686 4.74006 196.115 5.29403C195.548 5.84375 195.194 6.54687 195.054 7.40341L193.954 14H193.545L194.645 7.40341C194.785 6.53409 194.713 5.8267 194.427 5.28125C194.146 4.7358 193.571 4.46307 192.701 4.46307C192.122 4.46307 191.606 4.58878 191.154 4.8402C190.707 5.09162 190.338 5.43892 190.049 5.8821C189.763 6.32528 189.574 6.83239 189.48 7.40341L188.38 14H187.971ZM206.657 14.2045C205.796 14.2045 205.082 13.9808 204.515 13.5334C203.949 13.0859 203.552 12.4787 203.327 11.7116C203.101 10.9446 203.069 10.0795 203.231 9.11648C203.393 8.15341 203.714 7.28835 204.196 6.52131C204.677 5.75426 205.261 5.14702 205.947 4.69957C206.633 4.25213 207.364 4.02841 208.14 4.02841C208.711 4.02841 209.218 4.15199 209.661 4.39915C210.108 4.64204 210.477 4.97869 210.767 5.40909C211.061 5.83523 211.263 6.32955 211.374 6.89205C211.485 7.45028 211.489 8.04687 211.387 8.68182L211.31 9.09091H203.435L203.512 8.68182H210.978C211.106 7.89773 211.065 7.18608 210.856 6.54688C210.652 5.90341 210.313 5.39205 209.84 5.01278C209.371 4.62926 208.805 4.4375 208.14 4.4375C207.466 4.4375 206.819 4.63778 206.197 5.03835C205.574 5.43892 205.037 5.98437 204.586 6.67472C204.134 7.36506 203.827 8.14489 203.665 9.0142L203.64 9.03977C203.495 9.90057 203.51 10.6911 203.684 11.4112C203.859 12.1314 204.196 12.7088 204.694 13.1435C205.193 13.5781 205.856 13.7955 206.682 13.7955C207.279 13.7955 207.803 13.6889 208.255 13.4759C208.711 13.2628 209.09 13.0178 209.393 12.7408C209.699 12.4638 209.93 12.2273 210.083 12.0312L210.364 12.2614C210.185 12.5085 209.927 12.7834 209.591 13.0859C209.254 13.3885 208.841 13.6506 208.351 13.8722C207.861 14.0938 207.296 14.2045 206.657 14.2045ZM216.866 14.2045C216.091 14.2045 215.43 13.9808 214.885 13.5334C214.344 13.0859 213.956 12.4744 213.722 11.6989C213.491 10.9233 213.457 10.0455 213.619 9.06534C213.781 8.1108 214.101 7.25426 214.578 6.49574C215.06 5.73295 215.639 5.1321 216.317 4.69318C216.999 4.25 217.719 4.02841 218.477 4.02841C219.261 4.02841 219.924 4.25426 220.465 4.70597C221.011 5.15767 221.398 5.77131 221.629 6.54688C221.863 7.32244 221.903 8.19602 221.75 9.16761C221.588 10.1222 221.266 10.9808 220.785 11.7436C220.303 12.5021 219.722 13.103 219.04 13.5462C218.358 13.9851 217.634 14.2045 216.866 14.2045ZM216.866 13.7955C217.574 13.7955 218.241 13.5909 218.867 13.1818C219.494 12.7685 220.026 12.206 220.465 11.4943C220.904 10.7784 221.196 9.96875 221.341 9.06534C221.486 8.1875 221.458 7.39915 221.258 6.70028C221.058 6.00142 220.719 5.44957 220.241 5.04474C219.764 4.63991 219.185 4.4375 218.503 4.4375C217.804 4.4375 217.141 4.64631 216.515 5.06392C215.888 5.47727 215.354 6.0419 214.911 6.75781C214.467 7.46946 214.173 8.27273 214.028 9.16761C213.875 10.0455 213.898 10.8338 214.099 11.5327C214.303 12.2315 214.644 12.7834 215.121 13.1882C215.603 13.593 216.185 13.7955 216.866 13.7955ZM225.322 7.40341L224.222 14H223.813L225.449 4.18182H225.858L225.603 5.74148H225.654C225.961 5.23011 226.404 4.82102 226.983 4.5142C227.567 4.20739 228.198 4.05398 228.876 4.05398C229.532 4.05398 230.088 4.19673 230.544 4.48224C231 4.76776 231.328 5.16193 231.528 5.66477C231.729 6.16761 231.773 6.74716 231.662 7.40341L230.563 14H230.154L231.253 7.40341C231.394 6.53409 231.245 5.8267 230.806 5.28125C230.371 4.7358 229.719 4.46307 228.85 4.46307C228.27 4.46307 227.729 4.58878 227.226 4.8402C226.728 5.09162 226.308 5.43892 225.967 5.8821C225.631 6.32528 225.415 6.83239 225.322 7.40341ZM237.7 14.2045C236.839 14.2045 236.125 13.9808 235.558 13.5334C234.992 13.0859 234.595 12.4787 234.369 11.7116C234.144 10.9446 234.112 10.0795 234.274 9.11648C234.436 8.15341 234.757 7.28835 235.239 6.52131C235.72 5.75426 236.304 5.14702 236.99 4.69957C237.676 4.25213 238.407 4.02841 239.183 4.02841C239.754 4.02841 240.261 4.15199 240.704 4.39915C241.151 4.64204 241.52 4.97869 241.81 5.40909C242.104 5.83523 242.306 6.32955 242.417 6.89205C242.528 7.45028 242.532 8.04687 242.43 8.68182L242.353 9.09091H234.478L234.555 8.68182H242.021C242.149 7.89773 242.108 7.18608 241.899 6.54688C241.695 5.90341 241.356 5.39205 240.883 5.01278C240.414 4.62926 239.847 4.4375 239.183 4.4375C238.509 4.4375 237.862 4.63778 237.24 5.03835C236.617 5.43892 236.08 5.98437 235.629 6.67472C235.177 7.36506 234.87 8.14489 234.708 9.0142L234.683 9.03977C234.538 9.90057 234.553 10.6911 234.727 11.4112C234.902 12.1314 235.239 12.7088 235.737 13.1435C236.236 13.5781 236.899 13.7955 237.725 13.7955C238.322 13.7955 238.846 13.6889 239.298 13.4759C239.754 13.2628 240.133 13.0178 240.436 12.7408C240.742 12.4638 240.972 12.2273 241.126 12.0312L241.407 12.2614C241.228 12.5085 240.97 12.7834 240.634 13.0859C240.297 13.3885 239.884 13.6506 239.394 13.8722C238.904 14.0938 238.339 14.2045 237.7 14.2045Z" fill="white"/>
</svg>
